<?xml version="1.0" encoding="UTF-8"?>
<!DOCTYPE svg PUBLIC "-//W3C//DTD SVG 1.1//EN" "http://www.w3.org/Graphics/SVG/1.1/DTD/svg11.dtd">
<!-- Creator: CorelDRAW -->
<svg xmlns="http://www.w3.org/2000/svg" xml:space="preserve" width="60mm" height="41.028mm" version="1.1" style="shape-rendering:geometricPrecision; text-rendering:geometricPrecision; image-rendering:optimizeQuality; fill-rule:evenodd; clip-rule:evenodd"
viewBox="0 0 6000 4102.8"
 xmlns:xlink="http://www.w3.org/1999/xlink"
 xmlns:xodm="http://www.corel.com/coreldraw/odm/2003">
 <defs>
  <style type="text/css">
   <![CDATA[
    .fil0 {fill:#FFFFBC}
   ]]>
  </style>
 </defs>
 <g id="Camada_x0020_1">
  <metadata id="CorelCorpID_0Corel-Layer"/>
  <g id="_1352262726384">
   <path class="fil0" d="M3877.04 1596.04c-58.08,0 -98.57,-11.11 -137.9,-44.1 -54.94,-46.07 -56.23,-95.74 -56.23,-156.1 0,-74.91 88.33,-157.74 163.8,-157.74 62.17,0 106.22,1.61 156.38,55.96 69.99,75.81 60.63,196.63 -0.3,251.79 -27.59,24.98 -75.38,50.19 -125.75,50.19zm-2663.3 -546.01c0,229.92 69.03,462.71 219.76,635.66 47.03,53.96 87.96,93.64 150.29,134.85 112.78,74.57 192.7,101.24 326.4,134.66 58.57,14.64 126.97,31.54 184.51,46.03 192.84,48.56 229.77,127.31 293.8,161.2 85.66,45.35 348.44,-4.39 589.23,217.65 106.12,97.87 177.37,245.19 177.37,398.98 0,175.18 -71.38,356.32 -117.89,519.11 -33.78,118.23 -33.78,128.2 -33.78,245.29 0,100.76 90.77,194.14 175.93,194.14 100.58,0 86.41,-32.13 90.98,-121.36l34.82 -329.19c34.59,-175.35 18.59,-235.13 102.08,-443.93 24.88,-62.21 92.17,-203.6 166.47,-203.6 51.01,0 154.62,48.24 176.42,90.52 47.08,91.31 -51.4,318.39 116.76,684.04 110.13,239.49 364.85,426.65 641.09,426.65 245.7,0 425.95,1.04 635.02,-111.19 67.19,-36.07 177.66,-131.47 219.25,-193.29 28.29,-42.06 57.5,-79.6 86.12,-120.15 80.05,-113.4 75.12,-174.6 127.98,-181.42 2.61,-0.34 78.25,-3.19 78.25,-24.89 0,-64.93 -101.81,-92.35 -160.13,-106.81l-228.15 -50.92c-63.57,0 -25.54,55.87 -24.27,60.66 -57.19,65.81 -76.65,148.27 -187.11,237.56 -97.06,78.46 -191.54,103.17 -311.84,118.89 -281.32,36.78 -465.66,-100.67 -465.66,-374.65 0,-63.65 7.03,-119.63 13.09,-181.06 6.47,-65.76 17.03,-105.2 80.44,-119.75 141.98,-32.6 148.22,-10.88 320.76,-79.65 124.5,-49.61 275.73,-140.35 354.55,-246.05 22.94,-30.77 61.24,-89.56 62.31,-137.9 -50.32,4.19 -195.14,82.86 -286.42,107.93 -53.72,14.75 -94.41,28.47 -153.9,40.22 -113.75,22.48 -103.76,27.79 -220.96,27.79 -141.67,0 0.31,-250.34 22.2,-299.34 170.21,-380.89 224.53,-870.42 -1.34,-1244.26l-97.85 -138.76c-155.87,-185.39 -338.08,-286.44 -574.42,-365.92 -266.85,-89.74 -525.79,-21.42 -626.85,-76.9l-97.49 -78.45c-11.47,-11.35 -18.37,-19.28 -30.09,-30.57 -13.28,-12.78 -16.81,-13.34 -30.09,-24.51 -14.31,-12.02 -17.62,-16.16 -33.04,-27.63 -75.63,-56.25 -130.2,-91.52 -223.57,-128.29 -355.99,-140.22 -763.72,-111.04 -1071.34,111.82l-146.65 120.29c-91.76,92.59 -161.2,183.8 -219.91,301.83 -55.79,112.16 -70.87,178.52 -89.18,305.16 -5.94,41.13 -13.95,77.07 -13.95,119.51z"/>
   <path class="fil0" d="M-5.67 2675.92l0 12.13c97.03,0 107.37,31.33 248.81,-5.99 37.91,-10 70.43,-28.87 103.06,-36.48 0,150.09 -7.94,313.81 7.12,453.96 6.77,62.94 23.39,136.97 33.68,196.85 25.69,149.52 48.43,226.6 94.96,366.12 25.47,76.4 120.03,344.76 164.75,411.58 17.42,26.03 41.71,33.58 81.69,33.58 45.56,0 203.61,2.99 239.24,-3.85 28.17,-5.4 25.28,-1.34 24.15,-21.77 -4.48,-81.48 -129.92,-240.45 -129.92,-623.53 0,-33.67 6.07,-35.97 6.07,-66.73 -106.84,0 -118.43,27.53 -236.6,0l45.25 -21.47c21.92,-7.1 34.55,-10.83 55.71,-17.11 273.57,-81.12 62.64,-102.5 328.17,-369.5 62.66,-62.99 129.12,-101.52 220,-101.52 65.33,0 148.58,106.37 225.56,156.64 55.95,36.53 191.01,104.23 277.99,104.23 19.64,0 41.44,-11.24 54.6,-18.2 -9.45,-17.85 -8.97,-20.59 -32.86,-27.82 -96.55,-29.21 -183.54,-12.79 -320.5,-134.5 -186.69,-165.91 -207.49,-492.06 -98.25,-671.49 22.38,-36.76 36.83,-57.48 62.42,-89.26 56.1,-69.66 123.45,-73.91 21.56,-141.05 -73.11,-48.19 -195,-143.83 -253.46,-207.62 -11.01,-12.02 -14.76,-17.64 -27.13,-27.47 -31.73,-25.18 -82.8,-77.94 -134.39,-77.94 -162.18,0 -364.14,172.27 -462.55,283.66 -173.58,196.48 -169.66,376.87 -269.92,476.29 -41.83,41.47 -84.93,82.74 -141.1,107.64l-188.11 60.62z"/>
   <path class="fil0" d="M5199.59 1905.45c0,218.75 273.22,207.89 394.34,436.8 42.33,-31.02 7.53,-63.65 212.34,-200.2 76.96,-51.32 188.06,-111.5 188.06,-230.54 0,-80.83 -4.46,-135.04 -62.35,-198.53 -64.65,-70.89 -171.67,-85.27 -260.22,-14.84 -16.38,13.04 -29.86,27 -41.53,43.4 -11.43,16.06 -20.58,37.11 -36.3,48.64 -9.5,-35.57 -96.19,-139.54 -169.87,-139.54 -79.58,0 -130.21,14.91 -176.12,78.69 -27.34,37.98 -48.35,110.38 -48.35,176.12z"/>
   <path class="fil0" d="M2469.56 3974.2l6.06 121.34c225.54,18.76 449.35,12.13 679.48,12.13 100.83,0 108.39,-18.12 97.06,-66.73 -66.08,-31.72 -244.02,51.78 -456.8,-107.41 -14.55,-10.88 -20.24,-15.34 -33.08,-27.58 -15.16,-14.46 -23.1,-16.73 -36.55,-30.18 -12.48,-12.47 -14.62,-19.38 -27.2,-33.47 -53.69,-60.16 -89.54,-135.54 -106.15,-215.39 -6.69,-32.18 -14.25,-77.66 -25.75,-101.65 -70.12,25.38 -97.07,393.78 -97.07,448.94z"/>
   <path class="fil0" d="M1444.28 4083.4c0,42.6 148.36,18.2 212.34,18.2l388.26 0c0,-57.66 -46,-92.75 -99.49,-124.98 -140.65,-84.74 -352.76,-57.83 -451.29,35.28 -10.1,9.54 -49.82,58.17 -49.82,71.5z"/>
   <path class="fil0" d="M2651.56 2736.59c0,50.09 25.84,84.93 72.8,84.93 94.56,0 112.17,-151.67 -6.06,-151.67 -35.45,0 -66.74,31.29 -66.74,66.74z"/>
  </g>
 </g>
</svg>
